<?xml version="1.0" encoding="UTF-8"?>
<svg width="34" height="34" version="1.1" viewBox="0 0 34 34" xmlns="http://www.w3.org/2000/svg">
 <g fill="#4d5b9d">
  <path d="m17 10c-0.6 0-1-0.4-1-1v-8c0-0.6 0.4-1 1-1s1 0.4 1 1v8c0 0.6-0.4 1-1 1z"/>
  <path d="m17 34c-0.6 0-1-0.4-1-1v-8c0-0.6 0.4-1 1-1s1 0.4 1 1v8c0 0.6-0.4 1-1 1z" opacity=".3"/>
  <path d="m21 11c-0.2 0-0.3 0-0.5-0.1-0.4-0.3-0.6-0.8-0.3-1.3l4-6.9c0.3-0.4 0.8-0.6 1.3-0.3 0.4 0.3 0.6 0.8 0.3 1.3l-4 6.9c-0.2 0.2-0.5 0.4-0.8 0.4z" opacity=".3"/>
  <path d="m9 31.8c-0.2 0-0.3 0-0.5-0.1-0.4-0.3-0.6-0.8-0.3-1.3l4-6.9c0.3-0.4 0.8-0.6 1.3-0.3 0.4 0.3 0.6 0.8 0.3 1.3l-4 6.9c-0.2 0.2-0.5 0.4-0.8 0.4z" opacity=".3"/>
  <path d="m13 11c-0.3 0-0.6-0.2-0.8-0.5l-4-6.9c-0.3-0.4-0.1-1 0.3-1.3s1-0.1 1.3 0.3l4 6.9c0.3 0.4 0.1 1-0.3 1.3-0.2 0.2-0.3 0.2-0.5 0.2z" opacity=".93"/>
  <path d="m25 31.8c-0.3 0-0.6-0.2-0.8-0.5l-4-6.9c-0.3-0.4-0.1-1 0.3-1.3s1-0.1 1.3 0.3l4 6.9c0.3 0.4 0.1 1-0.3 1.3-0.2 0.1-0.3 0.2-0.5 0.2z" opacity=".3"/>
  <path d="m9 18h-8c-0.6 0-1-0.4-1-1s0.4-1 1-1h8c0.6 0 1 0.4 1 1s-0.4 1-1 1z" opacity=".65"/>
  <path d="m33 18h-8c-0.6 0-1-0.4-1-1s0.4-1 1-1h8c0.6 0 1 0.4 1 1s-0.4 1-1 1z" opacity=".3"/>
  <path d="m10.1 13.9c-0.2 0-0.3 0-0.5-0.1l-6.9-4c-0.4-0.3-0.6-0.8-0.3-1.3 0.3-0.4 0.8-0.6 1.3-0.3l6.9 4c0.4 0.3 0.6 0.8 0.3 1.3-0.2 0.3-0.5 0.4-0.8 0.4z" opacity=".86"/>
  <path d="m30.9 25.9c-0.2 0-0.3 0-0.5-0.1l-6.9-4c-0.4-0.3-0.6-0.8-0.3-1.3 0.3-0.4 0.8-0.6 1.3-0.3l6.9 4c0.4 0.3 0.6 0.8 0.3 1.3-0.2 0.3-0.5 0.4-0.8 0.4z" opacity=".3"/>
  <path d="m3.1 25.9c-0.3 0-0.6-0.2-0.8-0.5-0.3-0.4-0.1-1 0.3-1.3l6.9-4c0.4-0.3 1-0.1 1.3 0.3s0.1 1-0.3 1.3l-6.9 4c-0.1 0.2-0.3 0.2-0.5 0.2z" opacity=".44"/>
  <path d="m23.9 13.9c-0.3 0-0.6-0.2-0.8-0.5-0.3-0.4-0.1-1 0.3-1.3l6.9-4c0.4-0.3 1-0.1 1.3 0.3s0.1 1-0.3 1.3l-6.9 4c-0.2 0.2-0.3 0.2-0.5 0.2z" opacity=".3"/>
 </g>
</svg>
